<?xml version="1.0" encoding="iso-8859-1"?>
<!-- Generator: Adobe Illustrator 19.0.0, SVG Export Plug-In . SVG Version: 6.00 Build 0)  -->
<svg version="1.1" id="Capa_1" xmlns="http://www.w3.org/2000/svg" xmlns:xlink="http://www.w3.org/1999/xlink" x="0px" y="0px"
	 viewBox="0 0 448.003 448.003" style="enable-background:new 0 0 448.003 448.003;" xml:space="preserve">
<g>
	<g>
		<g>
			<path d="M447.826,434.329l-13.12-61.472c-7.338-33.076-36.584-56.674-70.464-56.856h-68.24v-8.8
				c18.611-3.827,31.976-20.199,32-39.2v-32.8c21.599-4.354,35.579-25.394,31.225-46.993c-2.494-12.369-10.691-22.829-22.105-28.207
				c13.932-6.582,22.835-20.591,22.88-36v-32c0-13.255-10.745-24-24-24h-8v-8c-0.035-30.913-25.087-55.965-56-56h-192
				c-4.418,0-8,3.582-8,8v48c0.014,18.466,9.13,35.737,24.368,46.168c-0.196,0.594-0.32,1.209-0.368,1.832v32
				c0.025,8.866,4.951,16.991,12.8,21.112c-19.338,10.505-26.499,34.698-15.994,54.036c5.642,10.386,15.604,17.732,27.194,20.052
				v32.8c0.024,19.001,13.389,35.373,32,39.2v8.8h-68.24c-33.89,0.182-63.142,23.798-70.464,56.888l-13.12,61.44
				c-0.923,4.321,1.831,8.572,6.151,9.495c0.55,0.117,1.11,0.177,1.673,0.177h432c4.418,0,8-3.581,8.001-7.999
				C448.003,435.44,447.944,434.879,447.826,434.329z M328.002,84.001h8c4.418,0,8,3.582,8,8v32
				c-0.012,10.168-6.418,19.229-16,22.632V84.001z M328.002,173.369c9.582,3.403,15.988,12.464,16,22.632
				c-0.012,10.168-6.418,19.229-16,22.632V173.369z M120.002,218.633c-9.582-3.403-15.988-12.464-16-22.632
				c0.012-10.168,6.418-19.229,16-22.632V218.633z M120.002,148.001c-4.418,0-8-3.582-8-8v-24h8V148.001z M128.002,100.001
				c-22.08-0.026-39.974-17.92-40-40v-40h184c22.08,0.026,39.974,17.92,40,40v40H128.002z M136.002,268.001v-152h176v152
				c0,13.255-10.745,24-24,24h-128C146.747,292.001,136.002,281.256,136.002,268.001z M280.002,308.001v12.688l-56,56l-56-56
				v-12.688H280.002z M366.778,428.001l-6.888-41.32l-15.776,2.64l6.448,38.68H97.442l6.448-38.68l-15.776-2.64l-6.888,41.32H17.89
				l11.048-51.744c5.7-25.743,28.458-44.114,54.824-44.256h72.928l61.656,61.656c3.124,3.123,8.188,3.123,11.312,0l61.656-61.656
				h72.928c26.358,0.143,49.111,18.5,54.824,44.232l11.048,51.768H366.778z"/>
			<circle cx="272.002" cy="172.001" r="16"/>
			<circle cx="176.002" cy="172.001" r="16"/>
			<rect x="264.002" y="396.001" width="48" height="16"/>
			<rect x="320.002" y="396.001" width="16" height="16"/>
		</g>
	</g>
</g>
<g>
</g>
<g>
</g>
<g>
</g>
<g>
</g>
<g>
</g>
<g>
</g>
<g>
</g>
<g>
</g>
<g>
</g>
<g>
</g>
<g>
</g>
<g>
</g>
<g>
</g>
<g>
</g>
<g>
</g>
</svg>
